<?xml version="1.0"?>
<svg width="960" height="960" xmlns="http://www.w3.org/2000/svg" xmlns:svg="http://www.w3.org/2000/svg">
 <title>delete_white</title>
 <g class="layer">
  <title>Layer 1</title>
  <g id="svg_3">
   <path d="m257,829q-33,0 -56.5,-23.5t-23.5,-56.5l0,-520l-40,0l0,-80l200,0l0,-40l240,0l0,40l200,0l0,80l-40,0l0,520q0,33 -23.5,56.5t-56.5,23.5l-400,0zm400,-600l-400,0l0,520l400,0l0,-520zm-320,440l80,0l0,-360l-80,0l0,360zm160,0l80,0l0,-360l-80,0l0,360zm-240,-440l0,520l0,-520z" fill="#ffffff" id="svg_1"/>
   <path d="m277,849q-33,0 -56.5,-23.5t-23.5,-56.5l0,-520l-40,0l0,-80l200,0l0,-40l240,0l0,40l200,0l0,80l-40,0l0,520q0,33 -23.5,56.5t-56.5,23.5l-400,0zm400,-600l-400,0l0,520l400,0l0,-520zm-320,440l80,0l0,-360l-80,0l0,360zm160,0l80,0l0,-360l-80,0l0,360zm-240,-440l0,520l0,-520z" fill="#ffffff" id="svg_2"/>
  </g>
 </g>
</svg>